<svg width="1920" height="1080" viewBox="0 0 1920 1080" xmlns="http://www.w3.org/2000/svg"><rect width="1920" height="1080" fill="#ffffff"/><path d="M1586,575.9999999999999C1588.0378695796048,718.7546895706428,1495.157952856224,909.0323296103595,1396.4912861895573,975.2640687119285C1297.8246195228905,1041.4958078134975,1107.6158178994117,970.8904346094137,994,973.3904346094137C880.3841821005882,975.8904346094137,819.2963787930867,1053.4958078134975,714.7963787930867,990.2640687119285C610.2963787930867,927.0323296103596,368.6218325811388,734.0880229039761,367,594C365.3781674188612,453.91197709602386,604.7320499729205,222.37561050288627,705.0653833062539,149.73593128807153C805.3987166395873,77.09625207325679,855.8002190990542,163.32859137777825,968.9999999999999,158.16192471111157C1082.1997809009456,152.99525804444488,1281.430735378595,49.09625207325669,1384.2640687119283,118.73593128807141C1487.0974020452616,188.37561050288613,1583.9621304203952,433.245310429357,1586,575.9999999999999C1588.0378695796048,718.7546895706428,1495.157952856224,909.0323296103595,1396.4912861895573,975.2640687119285" fill="#000000"/></svg>